<?xml version="1.0" standalone="no"?>
<!DOCTYPE svg PUBLIC "-//W3C//DTD SVG 20010904//EN"
 "http://www.w3.org/TR/2001/REC-SVG-20010904/DTD/svg10.dtd">
<svg version="1.0" xmlns="http://www.w3.org/2000/svg"
 width="500.000000pt" height="500.000000pt" viewBox="0 0 500.000000 500.000000"
 preserveAspectRatio="xMidYMid meet">

<g transform="translate(0.000000,500.000000) scale(0.100000,-0.100000)"
fill="#000000" stroke="none">
<path d="M2770 4649 c-175 -109 -357 -209 -373 -205 -9 2 -110 42 -223 87
-159 65 -208 81 -221 73 -9 -6 -49 -84 -88 -175 -39 -90 -82 -186 -96 -214
l-24 -49 -229 -57 c-126 -32 -233 -63 -237 -71 -5 -7 -7 -20 -4 -28 2 -8 25
-113 51 -233 l46 -218 -78 -92 c-43 -51 -111 -131 -151 -178 -40 -47 -73 -95
-73 -105 0 -12 66 -77 175 -174 163 -145 174 -157 175 -190 0 -19 -7 -127 -15
-240 -11 -161 -12 -207 -2 -216 7 -7 115 -22 246 -36 l235 -23 125 -200 c74
-116 133 -201 144 -203 9 -2 106 49 215 112 109 64 203 116 209 116 6 0 106
-38 222 -85 123 -50 220 -84 230 -80 12 4 50 78 113 223 l95 217 228 56 c146
36 233 62 239 71 6 11 -3 74 -33 207 -23 105 -44 211 -47 234 l-6 42 151 179
c83 99 151 184 151 190 0 18 -10 27 -139 141 -69 61 -146 130 -172 155 l-48
45 16 233 c14 199 14 235 2 247 -9 9 -89 21 -239 36 -124 12 -230 27 -237 33
-6 6 -65 97 -131 201 -131 209 -137 214 -202 174z m-95 -524 c290 -67 531
-281 626 -557 117 -341 11 -724 -263 -948 -137 -111 -357 -190 -533 -190 -487
0 -865 374 -865 855 0 379 237 704 600 824 125 41 298 47 435 16z"/>
<path d="M2312 3950 c-118 -31 -206 -84 -303 -180 -73 -72 -94 -101 -132 -180
-132 -271 -84 -572 123 -781 158 -160 348 -230 566 -208 95 10 172 36 269 92
133 77 216 165 281 301 50 104 67 196 62 329 -4 93 -10 126 -37 197 -73 198
-224 347 -423 417 -102 37 -297 43 -406 13z m616 -342 c14 -14 22 -33 22 -54
0 -27 -26 -63 -158 -221 -86 -103 -215 -255 -286 -337 l-130 -149 -35 40
c-300 332 -307 342 -258 398 17 20 32 26 63 27 33 0 56 -10 133 -63 l92 -63
217 217 c119 119 228 221 242 226 32 13 69 5 98 -21z"/>
<path d="M1770 2002 l-85 -48 -3 -812 c-1 -447 0 -812 3 -812 3 0 94 76 203
169 598 512 595 510 614 496 17 -11 170 -139 612 -512 100 -84 184 -153 189
-153 4 0 7 375 7 834 l0 834 -46 16 -45 15 -33 -72 c-18 -40 -45 -103 -61
-142 -35 -84 -42 -95 -66 -95 -10 0 -121 41 -247 91 l-229 92 -189 -111 c-104
-60 -206 -118 -227 -128 -38 -18 -38 -18 -61 7 -20 20 -159 239 -222 347 -10
17 -21 32 -24 32 -3 -1 -43 -22 -90 -48z"/>
</g>
</svg>
